<svg width="349" height="235" viewBox="0 0 349 235" fill="none" xmlns="http://www.w3.org/2000/svg">
<path fill-rule="evenodd" clip-rule="evenodd" d="M82.6772 119.681L82.3648 138.151H116.674C123.945 138.151 129.881 143.921 129.881 150.989V163.826H129.739V214.018C129.739 221.086 123.803 226.856 116.532 226.856H103.325V168.465C103.325 163.164 104.348 163.826 99.0934 163.826H65.125V163.744H48.1976C37.2913 163.744 28.3448 155.047 28.3448 144.445V81.223C28.3448 70.4282 37.4333 61.5936 48.5384 61.5936H58.5358C74.3839 61.5936 75.946 68.965 79.979 76.6676L96.8496 83.1279C109.062 88.4839 105.938 89.533 114.231 79.5389L125.024 66.5631C130.307 58.3635 151.182 66.922 142.236 80.6984L126.586 101.46C120.082 110.101 111.42 111.316 100.939 107.092L82.7056 100.852V119.681H82.6772ZM338.15 214.846C338.037 214.045 337.696 213.3 337.071 212.693C332.499 208.22 326.733 204.576 320.144 202.064C315.543 200.324 310.516 199.137 305.261 198.613L306.255 183.318H342.07C345.791 183.318 348.858 180.336 348.858 176.719C348.858 149.387 342.24 128.847 348.858 97.7326C350.818 88.5115 331.249 87.1863 331.249 98.2296V168.271H263.511C259.79 168.271 256.723 173.13 256.723 176.747V181.882C256.723 182.683 257.404 183.345 258.228 183.345H294.156L295.548 198.475C289.981 198.833 284.67 199.938 279.757 201.677C273.451 203.913 267.856 207.199 263.312 211.229C262.233 212.196 261.835 213.631 262.176 214.929C260.415 216.199 259.279 217.469 259.279 220.561C259.279 223.653 262.517 227.573 266.493 227.573C270.469 227.573 273.707 223.653 273.707 220.561C273.707 217.469 272.543 216.171 270.753 214.901C274.133 212.361 278.052 210.236 282.37 208.717C286.999 207.061 292.111 206.067 297.508 205.901L298.303 213.493L298.331 213.825C295.292 214.653 293.049 217.027 293.049 220.589C293.049 224.15 296.286 227.601 300.263 227.601C304.239 227.601 307.477 224.122 307.477 220.589C307.477 217.055 305.261 214.68 302.251 213.852L302.279 213.493L302.847 205.984C307.988 206.315 312.873 207.392 317.304 209.076H317.332C321.649 210.705 325.54 212.914 328.863 215.592C327.528 216.861 326.705 217.69 326.705 220.589C326.705 223.487 329.942 227.601 333.919 227.601C337.895 227.601 341.133 223.681 341.133 220.589C341.161 217.414 339.968 216.116 338.15 214.846ZM280.353 0.938675C265.101 0.938675 252.718 12.9758 252.718 27.8013C252.718 42.6269 265.101 54.664 280.353 54.664C295.605 54.664 307.988 42.6269 307.988 27.8013C307.959 12.9758 295.605 0.938675 280.353 0.938675ZM268.85 106.291L269.39 138.151H235.081C227.81 138.151 221.874 143.921 221.874 150.989V163.826H222.016V214.018C222.016 221.086 227.952 226.856 235.223 226.856H248.429V167.498C248.429 161.866 250.616 163.826 257.149 163.826H286.63V163.744H303.557C314.492 163.744 323.41 155.047 323.41 144.445V77.4683C323.41 66.6735 314.321 57.8389 303.216 57.8389H293.219C272.429 57.8389 275.724 71.7534 266.521 80.5052C257.433 89.1465 259.705 90.1404 247.293 90.1404H220.539C204.577 90.1404 200.658 110.432 223.408 110.432H247.947C258.881 110.432 259.819 112.116 268.85 106.291ZM242.607 114.574C199.55 114.574 166.178 114.574 123.121 114.574C122.468 114.574 121.957 115.098 121.957 115.705V132.049C121.957 132.684 122.496 133.181 123.121 133.181C145.615 133.181 150.756 133.181 173.279 133.181V233.426C173.279 234.255 173.989 234.945 174.841 234.945H175.437H175.466H191.995H192.024H192.62C193.472 234.945 194.182 234.255 194.182 233.426V133.209C209.036 133.209 227.753 133.209 242.607 133.209C243.232 133.209 243.772 132.684 243.772 132.077V115.733C243.772 115.07 243.232 114.574 242.607 114.574ZM3.66369 101.543H13.2919C15.2516 101.543 16.5581 103.144 16.8705 105.021C20.5059 127.328 22.494 149.636 22.3804 171.916H88.2723C90.8853 171.916 92.987 173.986 92.987 176.498V185.775H89.2096V233.288C89.2096 234.061 88.5564 234.696 87.7611 234.696H75.1224C74.3271 234.696 73.6739 234.061 73.6739 233.288V212.637H19.7959C19.0006 218.932 18.035 225.227 16.8705 231.521C16.5297 233.399 15.2516 235 13.2919 235H3.66369C1.70398 235 -0.454552 233.371 0.0850803 231.521C12.7806 188.563 10.1393 146.571 0.0850803 105.049C-0.369347 103.171 1.70398 101.543 3.66369 101.543ZM73.7023 206.232V185.802H22.1816C21.8976 194.499 21.2727 197.536 20.3071 206.232H73.7023ZM57.9109 0C73.1626 0 85.5458 12.0371 85.5458 26.8627C85.5458 41.6882 73.1626 53.7253 57.9109 53.7253C42.6592 53.7253 30.2761 41.6882 30.2761 26.8627C30.2761 12.0371 42.6308 0 57.9109 0Z" fill="#0069C2"/>
</svg>
